# xmcd
#
# Track frame offsets:
#	150
#	18459
#	38980
#	49384
#	67487
#	79543
#	91240
#	106966
#	123412
#	143199
#	160340
#	178782
#	193252
#	206199
#	225248
#	243766
#	256366
#	276874
#	299721
#
# Disc length: 4216 seconds
#
# Revision: 1
# Processed by: cddbd v1.5.1PL0 Copyright (c) Steve Scherf et al.
# Submitted via: EasyCDDAExtractor 7.0.5.1
#
DISCID=21107613
DTITLE=Various Artist - New Country Roads volume 4
DYEAR=2005
DGENRE=Country
TTITLE0=CCB - Sundown
TTITLE1=Sovert Bjordal - Wings of Love
TTITLE2=Ricky Dean Morgan - It's Hard To Keep Your Head Above the Water
TTITLE3=Ann-Martia - Class or '93
TTITLE4=Kevin Henderson - 'Til the Cows Come Home
TTITLE5=Crea - Your Cheatin' Heart
TTITLE6=Stars'n'Bars feat. Mat Wegner - Son of Texas
TTITLE7=Dallas Wayne - Invisible Man
TTITLE8=Kelly Lang - Down in Destin
TTITLE9=Alicja Boncol - Nie chcê byæ anio³em
TTITLE10=Kevin Henderson - I'll Be Seeing You
TTITLE11=Hermann Lammers Meyer - The Best Part of Nothing (with David Frizzel)
TTITLE12=Alicja Bonocol - I Wanna Be a Cowboy's Sweetheart
TTITLE13=Ricky Dean Morgan - My One And Only Love
TTITLE14=CCB - Friends And Lovers
TTITLE15=Sivert Bjordal - Cold Cold Heart
TTITLE16=AnnMarita - You Said Forever
TTITLE17=Stars'n'Bars feat. Mat Wegner - San Antone Tonight
TTITLE18=Tequila Sunrise - My Rock (Steve with Melbra Rai)
EXTD=
EXTT0=
EXTT1=
EXTT2=
EXTT3=
EXTT4=
EXTT5=
EXTT6=
EXTT7=
EXTT8=
EXTT9=
EXTT10=
EXTT11=
EXTT12=
EXTT13=
EXTT14=
EXTT15=
EXTT16=
EXTT17=
EXTT18=
PLAYORDER=
